<?xml version="1.0" encoding="utf-8"?>
<svg version="1.1" xmlns:xlink="http://www.w3.org/1999/xlink" width="10px" height="9px" xmlns="http://www.w3.org/2000/svg">
  <g transform="matrix(1 0 0 1 -3305 -2614 )">
    <path d="M 5.67057291666667 6.146484375  C 5.70963541666667 6.181640625  5.72916666666667 6.2265625  5.72916666666667 6.28125  L 5.72916666666667 7.21875  C 5.72916666666667 7.2734375  5.70963541666667 7.318359375  5.67057291666667 7.353515625  C 5.63151041666667 7.388671875  5.58159722222222 7.40625  5.52083333333333 7.40625  L 4.47916666666667 7.40625  C 4.41840277777778 7.40625  4.36848958333333 7.388671875  4.32942708333333 7.353515625  C 4.29036458333333 7.318359375  4.27083333333333 7.2734375  4.27083333333333 7.21875  L 4.27083333333333 6.28125  C 4.27083333333333 6.2265625  4.29036458333333 6.181640625  4.32942708333333 6.146484375  C 4.36848958333333 6.111328125  4.41840277777778 6.09375  4.47916666666667 6.09375  L 5.52083333333333 6.09375  C 5.58159722222222 6.09375  5.63151041666667 6.111328125  5.67057291666667 6.146484375  Z M 6.68294270833333 2.1181640625  C 7.158203125 2.4677734375  7.39583333333333 2.88671875  7.39583333333333 3.375  C 7.39583333333333 3.5703125  7.36328125 3.74609375  7.29817708333333 3.90234375  C 7.23307291666667 4.05859375  7.13433159722222 4.193359375  7.001953125 4.306640625  C 6.86957465277778 4.419921875  6.75672743055556 4.505859375  6.66341145833333 4.564453125  C 6.57009548611111 4.623046875  6.44097222222222 4.693359375  6.27604166666667 4.775390625  C 6.13715277777778 4.845703125  6.03624131944445 4.900390625  5.97330729166667 4.939453125  C 5.91037326388889 4.978515625  5.85394965277778 5.025390625  5.80403645833333 5.080078125  C 5.75412326388889 5.134765625  5.72916666666667 5.19140625  5.72916666666667 5.25  L 5.72916666666667 5.4375  C 5.72916666666667 5.4921875  5.70963541666667 5.537109375  5.67057291666667 5.572265625  C 5.63151041666667 5.607421875  5.58159722222222 5.625  5.52083333333333 5.625  L 4.47916666666667 5.625  C 4.41840277777778 5.625  4.36848958333333 5.607421875  4.32942708333333 5.572265625  C 4.29036458333333 5.537109375  4.27083333333333 5.4921875  4.27083333333333 5.4375  L 4.27083333333333 5.0390625  C 4.27083333333333 4.90234375  4.29361979166667 4.7763671875  4.33919270833333 4.6611328125  C 4.384765625 4.5458984375  4.43684895833333 4.453125  4.49544270833333 4.3828125  C 4.55403645833333 4.3125  4.638671875 4.2431640625  4.74934895833333 4.1748046875  C 4.86002604166667 4.1064453125  4.94900173611111 4.056640625  5.01627604166667 4.025390625  C 5.08355034722222 3.994140625  5.18012152777778 3.953125  5.30598958333333 3.90234375  C 5.53602430555556 3.8046875  5.69878472222222 3.720703125  5.79427083333333 3.650390625  C 5.88975694444445 3.580078125  5.9375 3.484375  5.9375 3.36328125  C 5.9375 3.19921875  5.84309895833333 3.0595703125  5.654296875 2.9443359375  C 5.46549479166667 2.8291015625  5.25824652777778 2.771484375  5.03255208333333 2.771484375  C 4.78949652777778 2.771484375  4.58333333333333 2.82421875  4.4140625 2.9296875  C 4.28819444444444 3.0078125  4.11458333333333 3.169921875  3.89322916666667 3.416015625  C 3.85416666666667 3.462890625  3.79991319444444 3.486328125  3.73046875 3.486328125  C 3.68272569444444 3.486328125  3.64149305555556 3.474609375  3.60677083333333 3.451171875  L 2.90364583333333 2.970703125  C 2.86024305555556 2.943359375  2.83420138888889 2.904296875  2.82552083333333 2.853515625  C 2.81684027777778 2.802734375  2.82769097222222 2.7578125  2.85807291666667 2.71875  C 3.38758680555556 1.96875  4.14496527777778 1.59375  5.13020833333333 1.59375  C 5.69010416666667 1.59375  6.20768229166667 1.7685546875  6.68294270833333 2.1181640625  Z M 6.61783854166667 1.048828125  C 6.103515625 0.849609375  5.56423611111111 0.75  5 0.75  C 4.43576388888889 0.75  3.896484375 0.849609375  3.38216145833333 1.048828125  C 2.86783854166667 1.248046875  2.42513020833333 1.5146484375  2.05403645833333 1.8486328125  C 1.68294270833333 2.1826171875  1.38671875 2.5810546875  1.16536458333333 3.0439453125  C 0.944010416666667 3.5068359375  0.833333333333333 3.9921875  0.833333333333333 4.5  C 0.833333333333333 5.0078125  0.944010416666667 5.4931640625  1.16536458333333 5.9560546875  C 1.38671875 6.4189453125  1.68294270833333 6.8173828125  2.05403645833333 7.1513671875  C 2.42513020833333 7.4853515625  2.86783854166667 7.751953125  3.38216145833333 7.951171875  C 3.896484375 8.150390625  4.43576388888889 8.25  5 8.25  C 5.56423611111111 8.25  6.103515625 8.150390625  6.61783854166667 7.951171875  C 7.13216145833333 7.751953125  7.57486979166667 7.4853515625  7.94596354166667 7.1513671875  C 8.31705729166667 6.8173828125  8.61328125 6.4189453125  8.83463541666667 5.9560546875  C 9.05598958333333 5.4931640625  9.16666666666667 5.0078125  9.16666666666667 4.5  C 9.16666666666667 3.9921875  9.05598958333333 3.5068359375  8.83463541666667 3.0439453125  C 8.61328125 2.5810546875  8.31705729166667 2.1826171875  7.94596354166667 1.8486328125  C 7.57486979166667 1.5146484375  7.13216145833333 1.248046875  6.61783854166667 1.048828125  Z M 9.32942708333333 2.2412109375  C 9.77647569444444 2.9306640625  10 3.68359375  10 4.5  C 10 5.31640625  9.77647569444444 6.0693359375  9.32942708333333 6.7587890625  C 8.88237847222222 7.4482421875  8.27582465277778 7.994140625  7.509765625 8.396484375  C 6.74370659722222 8.798828125  5.90711805555556 9  5 9  C 4.09288194444444 9  3.25629340277778 8.798828125  2.490234375 8.396484375  C 1.72417534722222 7.994140625  1.11762152777778 7.4482421875  0.670572916666667 6.7587890625  C 0.223524305555556 6.0693359375  0 5.31640625  0 4.5  C 0 3.68359375  0.223524305555556 2.9306640625  0.670572916666667 2.2412109375  C 1.11762152777778 1.5517578125  1.72417534722222 1.005859375  2.490234375 0.603515625  C 3.25629340277778 0.201171874999999  4.09288194444444 0  5 0  C 5.90711805555556 0  6.74370659722222 0.201171874999999  7.509765625 0.603515625  C 8.27582465277778 1.005859375  8.88237847222222 1.5517578125  9.32942708333333 2.2412109375  Z " fill-rule="nonzero" fill="#aaaaaa" stroke="none" transform="matrix(1 0 0 1 3305 2614 )" />
  </g>
</svg>