<?xml version="1.0" encoding="utf-8"?>
<svg version="1.1" xmlns:xlink="http://www.w3.org/1999/xlink" width="12px" height="9px" xmlns="http://www.w3.org/2000/svg">
  <g transform="matrix(1 0 0 1 -3231 -2691 )">
    <path d="M 9.1015625 4.18359375  C 9.20052083333333 4.27265625  9.25 4.378125  9.25 4.5  C 9.25 4.621875  9.20052083333333 4.72734375  9.1015625 4.81640625  L 4.8515625 8.64140625  C 4.75260416666667 8.73046875  4.63541666666667 8.775  4.5 8.775  C 4.36458333333333 8.775  4.24739583333333 8.73046875  4.1484375 8.64140625  C 4.04947916666667 8.55234375  4 8.446875  4 8.325  L 4 6.3  L 0.5 6.3  C 0.364583333333333 6.3  0.247395833333333 6.25546875  0.1484375 6.16640625  C 0.0494791666666667 6.07734375  0 5.971875  0 5.85  L 0 3.15  C 0 3.028125  0.0494791666666667 2.92265625  0.1484375 2.83359375  C 0.247395833333333 2.74453125  0.364583333333333 2.7  0.5 2.7  L 4 2.7  L 4 0.675  C 4 0.553124999999999  4.04947916666667 0.447656249999999  4.1484375 0.35859375  C 4.24739583333333 0.26953125  4.36458333333333 0.225  4.5 0.225  C 4.63541666666667 0.225  4.75260416666667 0.26953125  4.8515625 0.35859375  L 9.1015625 4.18359375  Z M 11.33984375 0.594140625  C 11.7799479166667 0.990234375  12 1.4671875  12 2.025  L 12 6.975  C 12 7.5328125  11.7799479166667 8.009765625  11.33984375 8.405859375  C 10.8997395833333 8.801953125  10.3697916666667 9  9.75 9  L 7.25 9  C 7.18229166666667 9  7.12369791666667 8.977734375  7.07421875 8.933203125  C 7.02473958333333 8.888671875  7 8.8359375  7 8.775  C 7 8.75625  6.99739583333333 8.709375  6.9921875 8.634375  C 6.98697916666667 8.559375  6.98567708333333 8.497265625  6.98828125 8.448046875  C 6.99088541666667 8.398828125  6.99869791666667 8.34375  7.01171875 8.2828125  C 7.02473958333333 8.221875  7.05078125 8.176171875  7.08984375 8.145703125  C 7.12890625 8.115234375  7.18229166666667 8.1  7.25 8.1  L 9.75 8.1  C 10.09375 8.1  10.3880208333333 7.98984375  10.6328125 7.76953125  C 10.8776041666667 7.54921875  11 7.284375  11 6.975  L 11 2.025  C 11 1.715625  10.8776041666667 1.45078125  10.6328125 1.23046875  C 10.3880208333333 1.01015625  10.09375 0.9  9.75 0.9  L 7.5 0.9  L 7.4140625 0.9  L 7.3125 0.9  C 7.3125 0.9  7.28255208333333 0.897656249999999  7.22265625 0.89296875  C 7.16276041666667 0.888281249999999  7.1328125 0.88125  7.1328125 0.871875  C 7.1328125 0.862499999999999  7.11197916666667 0.849609375  7.0703125 0.833203125  C 7.02864583333333 0.816796874999999  7.01041666666667 0.795703124999999  7.015625 0.769921875  C 7.02083333333333 0.744140625  7.015625 0.712499999999999  7 0.675  C 7 0.65625  6.99739583333333 0.609374999999999  6.9921875 0.534375  C 6.98697916666667 0.459375  6.98567708333333 0.397265625  6.98828125 0.348046875  C 6.99088541666667 0.298828125  6.99869791666667 0.243749999999999  7.01171875 0.1828125  C 7.02473958333333 0.121874999999999  7.05078125 0.0761718749999997  7.08984375 0.0457031250000004  C 7.12890625 0.0152343749999991  7.18229166666667 0  7.25 0  L 9.75 0  C 10.3697916666667 0  10.8997395833333 0.198046874999999  11.33984375 0.594140625  Z " fill-rule="nonzero" fill="#7f7f7f" stroke="none" transform="matrix(1 0 0 1 3231 2691 )" />
  </g>
</svg>