<?xml version="1.0" encoding="utf-8"?>
<svg version="1.1" xmlns:xlink="http://www.w3.org/1999/xlink" width="12px" height="10px" xmlns="http://www.w3.org/2000/svg">
  <g transform="matrix(1 0 0 1 -1508 -234 )">
    <path d="M 11.8515625 8.1484375  C 11.9505208333333 8.24739583333333  12 8.36458333333333  12 8.5  L 12 9.5  C 12 9.63541666666667  11.9505208333333 9.75260416666667  11.8515625 9.8515625  C 11.7526041666667 9.95052083333333  11.6354166666667 10  11.5 10  L 0.5 10  C 0.364583333333333 10  0.247395833333333 9.95052083333333  0.1484375 9.8515625  C 0.0494791666666667 9.75260416666667  0 9.63541666666667  0 9.5  L 0 8.5  C 0 8.36458333333333  0.0494791666666667 8.24739583333333  0.1484375 8.1484375  C 0.247395833333333 8.04947916666667  0.364583333333333 8  0.5 8  L 11.5 8  C 11.6354166666667 8  11.7526041666667 8.04947916666667  11.8515625 8.1484375  Z M 11.8515625 4.1484375  C 11.9505208333333 4.24739583333333  12 4.36458333333333  12 4.5  L 12 5.5  C 12 5.63541666666667  11.9505208333333 5.75260416666667  11.8515625 5.8515625  C 11.7526041666667 5.95052083333333  11.6354166666667 6  11.5 6  L 0.5 6  C 0.364583333333333 6  0.247395833333333 5.95052083333333  0.1484375 5.8515625  C 0.0494791666666667 5.75260416666667  0 5.63541666666667  0 5.5  L 0 4.5  C 0 4.36458333333333  0.0494791666666667 4.24739583333333  0.1484375 4.1484375  C 0.247395833333333 4.04947916666667  0.364583333333333 4  0.5 4  L 11.5 4  C 11.6354166666667 4  11.7526041666667 4.04947916666667  11.8515625 4.1484375  Z M 11.8515625 0.1484375  C 11.9505208333333 0.247395833333333  12 0.364583333333333  12 0.5  L 12 1.5  C 12 1.63541666666667  11.9505208333333 1.75260416666667  11.8515625 1.8515625  C 11.7526041666667 1.95052083333333  11.6354166666667 2  11.5 2  L 0.5 2  C 0.364583333333333 2  0.247395833333333 1.95052083333333  0.1484375 1.8515625  C 0.0494791666666667 1.75260416666667  0 1.63541666666667  0 1.5  L 0 0.5  C 0 0.364583333333333  0.0494791666666667 0.247395833333333  0.1484375 0.1484375  C 0.247395833333333 0.0494791666666661  0.364583333333333 0  0.5 0  L 11.5 0  C 11.6354166666667 0  11.7526041666667 0.0494791666666661  11.8515625 0.1484375  Z " fill-rule="nonzero" fill="#7f7f7f" stroke="none" transform="matrix(1 0 0 1 1508 234 )" />
  </g>
</svg>