<?xml version="1.0" encoding="utf-8"?>
<svg version="1.1" xmlns:xlink="http://www.w3.org/1999/xlink" width="28px" height="30px" xmlns="http://www.w3.org/2000/svg">
  <g transform="matrix(1 0 0 1 -610 -178 )">
    <path d="M 4.3203125 25.0420673076923  C 4.55121527777778 24.8137019230769  4.66666666666667 24.5432692307692  4.66666666666667 24.2307692307692  C 4.66666666666667 23.9182692307692  4.55121527777778 23.6478365384615  4.3203125 23.4194711538462  C 4.08940972222222 23.1911057692308  3.81597222222222 23.0769230769231  3.5 23.0769230769231  C 3.18402777777778 23.0769230769231  2.91059027777778 23.1911057692308  2.6796875 23.4194711538462  C 2.44878472222222 23.6478365384615  2.33333333333333 23.9182692307692  2.33333333333333 24.2307692307692  C 2.33333333333333 24.5432692307692  2.44878472222222 24.8137019230769  2.6796875 25.0420673076923  C 2.91059027777778 25.2704326923077  3.18402777777778 25.3846153846154  3.5 25.3846153846154  C 3.81597222222222 25.3846153846154  4.08940972222222 25.2704326923077  4.3203125 25.0420673076923  Z M 25.2747395833333 15.3064903846154  C 25.5360243055556 14.7536057692308  25.6666666666667 14.2668269230769  25.6666666666667 13.8461538461538  C 25.6666666666667 13.2331730769231  25.4296875 12.6953125  24.9557291666667 12.2325721153846  C 24.4817708333333 11.7698317307692  23.9409722222222 11.5384615384615  23.3333333333333 11.5384615384615  L 16.9166666666667 11.5384615384615  C 16.9166666666667 10.8413461538462  17.2083333333333 9.8828125  17.7916666666667 8.66286057692308  C 18.375 7.44290865384615  18.6666666666667 6.47836538461538  18.6666666666667 5.76923076923077  C 18.6666666666667 4.59134615384615  18.4722222222222 3.71995192307692  18.0833333333333 3.15504807692308  C 17.6944444444444 2.59014423076923  16.9166666666667 2.30769230769231  15.75 2.30769230769231  C 15.4340277777778 2.6201923076923  15.203125 3.13100961538461  15.0572916666667 3.84014423076923  C 14.9114583333333 4.54927884615385  14.7261284722222 5.30348557692307  14.5013020833333 6.10276442307692  C 14.2764756944444 6.90204326923077  13.9149305555556 7.56009615384615  13.4166666666667 8.07692307692308  C 13.1493055555556 8.35336538461538  12.6814236111111 8.90024038461538  12.0130208333333 9.71754807692308  C 11.9644097222222 9.77764423076923  11.8246527777778 9.95793269230769  11.59375 10.2584134615385  C 11.3628472222222 10.5588942307692  11.1714409722222 10.8052884615385  11.01953125 10.9975961538462  C 10.8676215277778 11.1899038461538  10.6579861111111 11.4453125  10.390625 11.7638221153846  C 10.1232638888889 12.0823317307692  9.88020833333333 12.3467548076923  9.66145833333333 12.5570913461538  C 9.44270833333333 12.7674278846154  9.20876736111111 12.9807692307692  8.95963541666667 13.1971153846154  C 8.71050347222222 13.4134615384615  8.46744791666667 13.5757211538462  8.23046875 13.6838942307692  C 7.99348958333333 13.7920673076923  7.77777777777778 13.8461538461538  7.58333333333333 13.8461538461538  L 7 13.8461538461538  L 7 25.3846153846154  L 7.58333333333333 25.3846153846154  C 7.74131944444445 25.3846153846154  7.93272569444445 25.4026442307692  8.15755208333333 25.4387019230769  C 8.38237847222222 25.4747596153846  8.58289930555556 25.5138221153846  8.75911458333333 25.5558894230769  C 8.93532986111111 25.5979567307692  9.16623263888889 25.6640625  9.45182291666667 25.7542067307692  C 9.73741319444444 25.8443509615385  9.95008680555556 25.9134615384615  10.08984375 25.9615384615385  C 10.2296006944444 26.0096153846154  10.4453125 26.0847355769231  10.7369791666667 26.1868990384615  C 11.0286458333333 26.2890625  11.2048611111111 26.3521634615385  11.265625 26.3762019230769  C 13.8298611111111 27.2536057692308  15.9079861111111 27.6923076923077  17.5 27.6923076923077  L 19.7057291666667 27.6923076923077  C 22.0390625 27.6923076923077  23.2057291666667 26.6887019230769  23.2057291666667 24.6814903846154  C 23.2057291666667 24.3689903846154  23.1753472222222 24.0324519230769  23.1145833333333 23.671875  C 23.4791666666667 23.4795673076923  23.7677951388889 23.1640625  23.98046875 22.7253605769231  C 24.1931423611111 22.2866586538462  24.2994791666667 21.8449519230769  24.2994791666667 21.4002403846154  C 24.2994791666667 20.9555288461538  24.1901041666667 20.5408653846154  23.9713541666667 20.15625  C 24.6154513888889 19.5552884615385  24.9375 18.8401442307692  24.9375 18.0108173076923  C 24.9375 17.7103365384615  24.8767361111111 17.3768028846154  24.7552083333333 17.0102163461538  C 24.6336805555556 16.6436298076923  24.4817708333333 16.3581730769231  24.2994791666667 16.1538461538462  C 24.6883680555556 16.1418269230769  25.0134548611111 15.859375  25.2747395833333 15.3064903846154  Z M 26.6145833333333 10.6009615384615  C 27.5381944444444 11.5144230769231  28 12.5901442307692  28 13.828125  C 28 14.8978365384615  27.7022569444444 15.8774038461538  27.1067708333333 16.7668269230769  C 27.2161458333333 17.1634615384615  27.2708333333333 17.578125  27.2708333333333 18.0108173076923  C 27.2708333333333 18.9362980769231  27.0399305555556 19.8016826923077  26.578125 20.6069711538462  C 26.6145833333333 20.859375  26.6328125 21.1177884615385  26.6328125 21.3822115384615  C 26.6328125 22.5961538461538  26.2682291666667 23.6658653846154  25.5390625 24.5913461538462  C 25.5512152777778 26.2620192307692  25.0347222222222 27.5811298076923  23.9895833333333 28.5486778846154  C 22.9444444444444 29.5162259615385  21.5651041666667 30  19.8515625 30  L 19.1953125 30  L 17.5 30  C 16.3333333333333 30  15.1818576388889 29.8647836538462  14.0455729166667 29.5943509615385  C 12.9092881944444 29.3239182692308  11.59375 28.9302884615385  10.0989583333333 28.4134615384615  C 8.68923611111111 27.9326923076923  7.85069444444445 27.6923076923077  7.58333333333333 27.6923076923077  L 2.33333333333333 27.6923076923077  C 1.68923611111111 27.6923076923077  1.13932291666667 27.4669471153846  0.68359375 27.0162259615385  C 0.227864583333333 26.5655048076923  0 26.0216346153846  0 25.3846153846154  L 0 13.8461538461538  C 0 13.2091346153846  0.227864583333333 12.6652644230769  0.68359375 12.2145432692308  C 1.13932291666667 11.7638221153846  1.68923611111111 11.5384615384615  2.33333333333333 11.5384615384615  L 7.328125 11.5384615384615  C 7.765625 11.25  8.59809027777778 10.3185096153846  9.82552083333333 8.74399038461539  C 10.5303819444444 7.84254807692308  11.1805555555556 7.0733173076923  11.7760416666667 6.43629807692308  C 12.0677083333333 6.1358173076923  12.2834201388889 5.62199519230769  12.4231770833333 4.89483173076923  C 12.5629340277778 4.16766826923077  12.7482638888889 3.40745192307692  12.9791666666667 2.61418269230769  C 13.2100694444444 1.82091346153846  13.5868055555556 1.171875  14.109375 0.667067307692306  C 14.5833333333333 0.222355769230771  15.1302083333333 0  15.75 0  C 16.7708333333333 0  17.6883680555556 0.195312500000002  18.5026041666667 0.5859375  C 19.3168402777778 0.976562499999998  19.9366319444444 1.58653846153846  20.3619791666667 2.41586538461538  C 20.7873263888889 3.24519230769231  21 4.36298076923077  21 5.76923076923077  C 21 6.88701923076923  20.7083333333333 8.04086538461539  20.125 9.23076923076923  L 23.3333333333333 9.23076923076923  C 24.5972222222222 9.23076923076923  25.6909722222222 9.6875  26.6145833333333 10.6009615384615  Z " fill-rule="nonzero" fill="#fbfbfb" stroke="none" transform="matrix(1 0 0 1 610 178 )" />
  </g>
</svg>