<?xml version="1.0" encoding="utf-8"?>
<svg version="1.1" xmlns:xlink="http://www.w3.org/1999/xlink" width="5px" height="4px" xmlns="http://www.w3.org/2000/svg">
  <g transform="matrix(1 0 0 1 -2762 -1726 )">
    <path d="M 4.90967741935484 0.552188552188552  C 4.96989247311828 0.615039281705948  5 0.691358024691358  5 0.781144781144781  C 5 0.870931537598204  4.96989247311828 0.947250280583614  4.90967741935484 1.01010101010101  L 2.5741935483871 3.44781144781145  L 2.13548387096774 3.90572390572391  C 2.0752688172043 3.9685746352413  2.00215053763441 4  1.91612903225806 4  C 1.83010752688172 4  1.75698924731183 3.9685746352413  1.69677419354839 3.90572390572391  L 1.25806451612903 3.44781144781145  L 0.0903225806451613 2.22895622895623  C 0.0301075268817205 2.16610549943883  0 2.08978675645342  0 2  C 0 1.91021324354658  0.0301075268817205 1.83389450056117  0.0903225806451613 1.77104377104377  L 0.529032258064516 1.31313131313131  C 0.589247311827957 1.25028058361392  0.66236559139785 1.21885521885522  0.748387096774194 1.21885521885522  C 0.834408602150538 1.21885521885522  0.90752688172043 1.25028058361392  0.967741935483871 1.31313131313131  L 1.91612903225806 2.30639730639731  L 4.03225806451613 0.0942760942760943  C 4.09247311827957 0.0314253647586979  4.16559139784946 0  4.25161290322581 0  C 4.33763440860215 0  4.41075268817204 0.0314253647586979  4.47096774193548 0.0942760942760943  L 4.90967741935484 0.552188552188552  Z " fill-rule="nonzero" fill="#eaf9ff" stroke="none" transform="matrix(1 0 0 1 2762 1726 )" />
  </g>
</svg>