<?xml version="1.0" encoding="utf-8"?>
<svg version="1.1" xmlns:xlink="http://www.w3.org/1999/xlink" width="23px" height="19px" xmlns="http://www.w3.org/2000/svg">
  <g transform="matrix(1 0 0 1 -257 -235 )">
    <path d="M 22.0877403846154 4.34517045454545  C 22.6959134615385 4.93892045454545  23 5.64962121212121  23 6.47727272727273  L 23 15.9772727272727  C 23 16.8049242424242  22.6959134615385 17.515625  22.0877403846154 18.109375  C 21.4795673076923 18.703125  20.7516025641026 19  19.9038461538462 19  L 3.09615384615385 19  C 2.24839743589744 19  1.52043269230769 18.703125  0.912259615384615 18.109375  C 0.304086538461538 17.515625  0 16.8049242424242  0 15.9772727272727  L 0 3.02272727272727  C 0 2.19507575757575  0.304086538461538 1.484375  0.912259615384615 0.890625  C 1.52043269230769 0.296875  2.24839743589744 0  3.09615384615385 0  L 7.51923076923077 0  C 8.36698717948718 0  9.09495192307692 0.296875  9.703125 0.890625  C 10.3112980769231 1.484375  10.6153846153846 2.19507575757575  10.6153846153846 3.02272727272727  L 10.6153846153846 3.45454545454545  L 19.9038461538462 3.45454545454545  C 20.7516025641026 3.45454545454545  21.4795673076923 3.75142045454545  22.0877403846154 4.34517045454545  Z " fill-rule="nonzero" fill="#aaaaaa" stroke="none" transform="matrix(1 0 0 1 257 235 )" />
  </g>
</svg>