<?xml version="1.0" encoding="utf-8"?>
<svg version="1.1" xmlns:xlink="http://www.w3.org/1999/xlink" width="26px" height="30px" xmlns="http://www.w3.org/2000/svg">
  <g transform="matrix(1 0 0 1 -940 -177 )">
    <path d="M 25.4583333333333 2.14285714285714  L 23.8333333333333 2.14285714285714  C 23.8333333333333 5.05580357142857  23.232421875 7.63113839285714  22.0305989583333 9.86886160714286  C 20.8287760416667 12.1065848214286  19.3250868055556 13.8169642857143  17.51953125 15  C 19.3250868055556 16.1830357142857  20.8287760416667 17.8934151785714  22.0305989583333 20.1311383928571  C 23.232421875 22.3688616071429  23.8333333333333 24.9441964285714  23.8333333333333 27.8571428571429  L 25.4583333333333 27.8571428571429  C 25.6163194444444 27.8571428571429  25.74609375 27.9073660714286  25.84765625 28.0078125  C 25.94921875 28.1082589285714  26 28.2366071428571  26 28.3928571428571  L 26 29.4642857142857  C 26 29.6205357142857  25.94921875 29.7488839285714  25.84765625 29.8493303571429  C 25.74609375 29.9497767857143  25.6163194444444 30  25.4583333333333 30  L 0.541666666666667 30  C 0.383680555555556 30  0.25390625 29.9497767857143  0.15234375 29.8493303571429  C 0.05078125 29.7488839285714  0 29.6205357142857  0 29.4642857142857  L 0 28.3928571428571  C 0 28.2366071428571  0.05078125 28.1082589285714  0.15234375 28.0078125  C 0.25390625 27.9073660714286  0.383680555555556 27.8571428571429  0.541666666666667 27.8571428571429  L 2.16666666666667 27.8571428571429  C 2.16666666666667 24.9441964285714  2.767578125 22.3688616071429  3.96940104166667 20.1311383928571  C 5.17122395833333 17.8934151785714  6.67491319444444 16.1830357142857  8.48046875 15  C 6.67491319444444 13.8169642857143  5.17122395833333 12.1065848214286  3.96940104166667 9.86886160714286  C 2.767578125 7.63113839285714  2.16666666666667 5.05580357142857  2.16666666666667 2.14285714285714  L 0.541666666666667 2.14285714285714  C 0.383680555555556 2.14285714285714  0.25390625 2.09263392857143  0.15234375 1.9921875  C 0.05078125 1.89174107142857  0 1.76339285714286  0 1.60714285714286  L 0 0.535714285714287  C 0 0.379464285714283  0.05078125 0.251116071428571  0.15234375 0.150669642857142  C 0.25390625 0.0502232142857129  0.383680555555556 0  0.541666666666667 0  L 25.4583333333333 0  C 25.6163194444444 0  25.74609375 0.0502232142857129  25.84765625 0.150669642857142  C 25.94921875 0.251116071428571  26 0.379464285714283  26 0.535714285714287  L 26 1.60714285714286  C 26 1.76339285714286  25.94921875 1.89174107142857  25.84765625 1.9921875  C 25.74609375 2.09263392857143  25.6163194444444 2.14285714285714  25.4583333333333 2.14285714285714  Z M 14.2779947916667 14.3889508928571  C 14.4077690972222 14.2047991071429  14.5798611111111 14.0736607142857  14.7942708333333 13.9955357142857  C 15.6631944444444 13.671875  16.50390625 13.1556919642857  17.31640625 12.4469866071429  C 18.12890625 11.73828125  18.8595920138889 10.8872767857143  19.5084635416667 9.89397321428571  C 20.1573350694444 8.90066964285714  20.6792534722222 7.72879464285714  21.07421875 6.37834821428571  C 21.4691840277778 5.02790178571428  21.6666666666667 3.61607142857143  21.6666666666667 2.14285714285714  L 4.33333333333333 2.14285714285714  C 4.33333333333333 3.61607142857143  4.53081597222222 5.02790178571428  4.92578125 6.37834821428571  C 5.32074652777778 7.72879464285714  5.84266493055556 8.90066964285714  6.49153645833333 9.89397321428571  C 7.14040798611111 10.8872767857143  7.87109375 11.73828125  8.68359375 12.4469866071429  C 9.49609375 13.1556919642857  10.3368055555556 13.671875  11.2057291666667 13.9955357142857  C 11.4201388888889 14.0736607142857  11.5922309027778 14.2047991071429  11.7220052083333 14.3889508928571  C 11.8517795138889 14.5731026785714  11.9166666666667 14.7767857142857  11.9166666666667 15  C 11.9166666666667 15.2232142857143  11.8517795138889 15.4268973214286  11.7220052083333 15.6110491071429  C 11.5922309027778 15.7952008928571  11.4201388888889 15.9263392857143  11.2057291666667 16.0044642857143  C 9.65972222222222 16.5736607142857  8.28298611111111 17.6674107142857  7.07552083333333 19  L 18.9244791666667 19  C 17.7170138888889 17.6674107142857  16.3402777777778 16.5736607142857  14.7942708333333 16.0044642857143  C 14.5798611111111 15.9263392857143  14.4077690972222 15.7952008928571  14.2779947916667 15.6110491071429  C 14.1482204861111 15.4268973214286  14.0833333333333 15.2232142857143  14.0833333333333 15  C 14.0833333333333 14.7767857142857  14.1482204861111 14.5731026785714  14.2779947916667 14.3889508928571  Z " fill-rule="nonzero" fill="#ffffff" stroke="none" transform="matrix(1 0 0 1 940 177 )" />
  </g>
</svg>