<?xml version="1.0" encoding="utf-8"?>
<svg version="1.1" xmlns:xlink="http://www.w3.org/1999/xlink" width="16px" height="16px" xmlns="http://www.w3.org/2000/svg">
  <g transform="matrix(1 0 0 1 -1174 -381 )">
    <path d="M 2.17021276595745 7.31428571428571  L 4.29787234042553 7.31428571428571  L 4.29787234042553 13.1047619047619  L 2.17021276595745 13.1047619047619  L 2.17021276595745 7.31428571428571  Z M 5.36170212765957 1.52380952380952  L 7.48936170212766 1.52380952380952  L 7.48936170212766 13.1047619047619  L 5.36170212765957 13.1047619047619  L 5.36170212765957 1.52380952380952  Z M 0.0425531914893617 14.5523809523809  L 16 14.5523809523809  L 16 16  L 0.0425531914893617 16  L 0.0425531914893617 14.5523809523809  Z M 8.5531914893617 4.41904761904763  L 10.6808510638298 4.41904761904763  L 10.6808510638298 13.1047619047619  L 8.5531914893617 13.1047619047619  L 8.5531914893617 4.41904761904763  Z M 11.7446808510638 0.0761904761904849  L 13.8723404255319 0.0761904761904849  L 13.8723404255319 13.1047619047619  L 11.7446808510638 13.1047619047619  L 11.7446808510638 0.0761904761904849  Z " fill-rule="nonzero" fill="#ffffff" stroke="none" transform="matrix(1 0 0 1 1174 381 )" />
  </g>
</svg>