<?xml version="1.0" encoding="utf-8"?>
<svg version="1.1" xmlns:xlink="http://www.w3.org/1999/xlink" width="30px" height="26px" xmlns="http://www.w3.org/2000/svg">
  <g transform="matrix(1 0 0 1 -1268 -180 )">
    <path d="M 18.125 18.2  L 19.98046875 14.3  L 26.15234375 14.3  C 26.1393229166667 14.259375  26.123046875 14.2052083333333  26.103515625 14.1375  C 26.083984375 14.0697916666667  26.0677083333333 14.015625  26.0546875 13.975  L 21.9140625 4  L 8.0859375 4  L 3.9453125 13.975  C 3.93229166666667 14.0020833333333  3.916015625 14.05625  3.896484375 14.1375  C 3.876953125 14.21875  3.86067708333333 14.2729166666667  3.84765625 14.3  L 10.01953125 14.3  L 11.875 18.2  L 18.125 18.2  Z M 29.51171875 12.4109375  C 29.8372395833333 13.2369791666667  30 14.0697916666667  30 14.909375  L 30 24.7  C 30 25.0520833333333  29.8763020833333 25.3567708333333  29.62890625 25.6140625  C 29.3815104166667 25.8713541666667  29.0885416666667 26  28.75 26  L 1.25 26  C 0.911458333333333 26  0.618489583333333 25.8713541666667  0.37109375 25.6140625  C 0.123697916666667 25.3567708333333  0 25.0520833333333  0 24.7  L 0 14.909375  C 0 14.0697916666667  0.162760416666667 13.2369791666667  0.48828125 12.4109375  L 5.13671875 1.1984375  C 5.26692708333333 0.859895833333331  5.50455729166667 0.575520833333332  5.849609375 0.345312500000001  C 6.19466145833333 0.115104166666663  6.53645833333333 0  6.875 0  L 23.125 0  C 23.4635416666667 0  23.8053385416667 0.115104166666663  24.150390625 0.345312500000001  C 24.4954427083333 0.575520833333332  24.7330729166667 0.859895833333331  24.86328125 1.1984375  L 29.51171875 12.4109375  Z " fill-rule="nonzero" fill="#ffffff" stroke="none" transform="matrix(1 0 0 1 1268 180 )" />
  </g>
</svg>