<?xml version="1.0" encoding="utf-8"?>
<svg version="1.1" xmlns:xlink="http://www.w3.org/1999/xlink" width="37px" height="37px" xmlns="http://www.w3.org/2000/svg">
  <g transform="matrix(1 0 0 1 -625 -199 )">
    <path d="M 34.3743489583333 13.4173177083333  L 30.9055989583333 9.94856770833333  L 22.3541666666667 18.5  L 30.9055989583333 27.0514322916667  L 34.3743489583333 23.5826822916667  C 34.8400607638889 23.0848524305556  35.4021267361111 22.9724392361111  36.060546875 23.2454427083333  C 36.6868489583333 23.5184461805556  37 23.9921875  37 24.6666666666667  L 37 35.4583333333333  C 37 35.8758680555556  36.8474392361111 36.2371961805556  36.5423177083333 36.5423177083333  C 36.2371961805556 36.8474392361111  35.8758680555556 37  35.4583333333333 37  L 24.6666666666667 37  C 23.9921875 37  23.5184461805556 36.6788194444444  23.2454427083333 36.0364583333333  C 22.9724392361111 35.41015625  23.0848524305556 34.8561197916667  23.5826822916667 34.3743489583333  L 27.0514322916667 30.9055989583333  L 18.5 22.3541666666667  L 9.94856770833333 30.9055989583333  L 13.4173177083333 34.3743489583333  C 13.9151475694444 34.8561197916667  14.0275607638889 35.41015625  13.7545572916667 36.0364583333333  C 13.4815538194444 36.6788194444444  13.0078125 37  12.3333333333333 37  L 1.54166666666667 37  C 1.12413194444444 37  0.762803819444444 36.8474392361111  0.457682291666667 36.5423177083333  C 0.152560763888889 36.2371961805556  0 35.8758680555556  0 35.4583333333333  L 0 24.6666666666667  C 0 23.9921875  0.321180555555556 23.5184461805556  0.963541666666667 23.2454427083333  C 1.58984375 22.9724392361111  2.14388020833333 23.0848524305556  2.62565104166667 23.5826822916667  L 6.09440104166667 27.0514322916667  L 14.6458333333333 18.5  L 6.09440104166667 9.94856770833333  L 2.62565104166667 13.4173177083333  C 2.32052951388889 13.7224392361111  1.95920138888889 13.875  1.54166666666667 13.875  C 1.34895833333333 13.875  1.15625 13.8348524305556  0.963541666666667 13.7545572916667  C 0.321180555555556 13.4815538194444  0 13.0078125  0 12.3333333333333  L 0 1.54166666666667  C 0 1.12413194444444  0.152560763888889 0.762803819444439  0.457682291666667 0.457682291666665  C 0.762803819444444 0.152560763888887  1.12413194444444 0  1.54166666666667 0  L 12.3333333333333 0  C 13.0078125 0  13.4815538194444 0.321180555555552  13.7545572916667 0.963541666666665  C 14.0275607638889 1.58984375  13.9151475694444 2.14388020833333  13.4173177083333 2.62565104166667  L 9.94856770833333 6.09440104166667  L 18.5 14.6458333333333  L 27.0514322916667 6.09440104166667  L 23.5826822916667 2.62565104166667  C 23.0848524305556 2.14388020833333  22.9724392361111 1.58984375  23.2454427083333 0.963541666666665  C 23.5184461805556 0.321180555555552  23.9921875 0  24.6666666666667 0  L 35.4583333333333 0  C 35.8758680555556 0  36.2371961805556 0.152560763888887  36.5423177083333 0.457682291666665  C 36.8474392361111 0.762803819444439  37 1.12413194444444  37 1.54166666666667  L 37 12.3333333333333  C 37 13.0078125  36.6868489583333 13.4815538194444  36.060546875 13.7545572916667  C 35.8517795138889 13.8348524305556  35.6510416666667 13.875  35.4583333333333 13.875  C 35.0407986111111 13.875  34.6794704861111 13.7224392361111  34.3743489583333 13.4173177083333  Z " fill-rule="nonzero" fill="#ffffff" stroke="none" transform="matrix(1 0 0 1 625 199 )" />
  </g>
</svg>