<?xml version="1.0" encoding="utf-8"?>
<svg version="1.1" xmlns:xlink="http://www.w3.org/1999/xlink" width="37px" height="37px" xmlns="http://www.w3.org/2000/svg">
  <g transform="matrix(1 0 0 1 -296 -199 )">
    <path d="M 19.4291294642857 6.27083333333333  C 19.690662202381 6.00694444444444  19.8214285714286 5.69444444444444  19.8214285714286 5.33333333333333  C 19.8214285714286 4.97222222222222  19.690662202381 4.65972222222222  19.4291294642857 4.39583333333333  C 19.1675967261905 4.13194444444444  18.8578869047619 4  18.5 4  C 18.1421130952381 4  17.8324032738095 4.13194444444444  17.5708705357143 4.39583333333333  C 17.3093377976191 4.65972222222222  17.1785714285714 4.97222222222222  17.1785714285714 5.33333333333333  C 17.1785714285714 5.69444444444444  17.3093377976191 6.00694444444444  17.5708705357143 6.27083333333333  C 17.8324032738095 6.53472222222222  18.1421130952381 6.66666666666667  18.5 6.66666666666667  C 18.8578869047619 6.66666666666667  19.1675967261905 6.53472222222222  19.4291294642857 6.27083333333333  Z M 36.8141741071429 24.1875  C 36.9380580357143 24.3125  37 24.4722222222222  37 24.6666666666667  L 37 32  C 37 32.3055555555556  36.8623511904762 32.5138888888889  36.5870535714286 32.625  C 36.4769345238095 32.6527777777778  36.3943452380952 32.6666666666667  36.3392857142857 32.6666666666667  C 36.1603422619048 32.6666666666667  36.0020461309524 32.6041666666667  35.8643973214286 32.4791666666667  L 33.9441964285714 30.5416666666667  C 32.3061755952381 32.5277777777778  30.1141183035714 34.1006944444444  27.3680245535714 35.2604166666667  C 24.6219308035714 36.4201388888889  21.6659226190476 37  18.5 37  C 15.3340773809524 37  12.3780691964286 36.4201388888889  9.63197544642857 35.2604166666667  C 6.88588169642857 34.1006944444444  4.69382440476191 32.5277777777778  3.05580357142857 30.5416666666667  L 1.13560267857143 32.4791666666667  C 1.01171875 32.6041666666667  0.853422619047619 32.6666666666667  0.660714285714286 32.6666666666667  C 0.605654761904762 32.6666666666667  0.523065476190476 32.6527777777778  0.412946428571429 32.625  C 0.13764880952381 32.5138888888889  0 32.3055555555556  0 32  L 0 24.6666666666667  C 0 24.4722222222222  0.0619419642857143 24.3125  0.185825892857143 24.1875  C 0.309709821428572 24.0625  0.468005952380952 24  0.660714285714286 24  L 7.92857142857143 24  C 8.23139880952381 24  8.43787202380953 24.1388888888889  8.54799107142857 24.4166666666667  C 8.65811011904762 24.6805555555556  8.60993303571428 24.9236111111111  8.40345982142857 25.1458333333333  L 6.33872767857143 27.2291666666667  C 7.26097470238095 28.4930555555556  8.56519717261905 29.5590277777778  10.2513950892857 30.4270833333333  C 11.9375930059524 31.2951388888889  13.8061755952381 31.8680555555556  16 32.1458333333333  L 16 18.6666666666667  L 11.8928571428571 18.6666666666667  C 11.5349702380952 18.6666666666667  11.2252604166667 18.5347222222222  10.9637276785714 18.2708333333333  C 10.7021949404762 18.0069444444444  10.5714285714286 17.6944444444444  10.5714285714286 17.3333333333333  L 10.5714285714286 14.6666666666667  C 10.5714285714286 14.3055555555556  10.7021949404762 13.9930555555556  10.9637276785714 13.7291666666667  C 11.2252604166667 13.4652777777778  11.5349702380952 13.3333333333333  11.8928571428571 13.3333333333333  L 15.8571428571429 13.3333333333333  L 15.8571428571429 9.9375  C 15.0587797619048 9.46527777777778  14.418712797619 8.82291666666667  13.9369419642857 8.01041666666667  C 13.4551711309524 7.19791666666667  13.2142857142857 6.30555555555555  13.2142857142857 5.33333333333333  C 13.2142857142857 3.86111111111111  13.73046875 2.60416666666667  14.7628348214286 1.5625  C 15.7952008928571 0.520833333333333  17.0409226190476 0  18.5 0  C 19.9590773809524 0  21.2047991071429 0.520833333333333  22.2371651785714 1.5625  C 23.26953125 2.60416666666667  23.7857142857143 3.86111111111111  23.7857142857143 5.33333333333333  C 23.7857142857143 6.30555555555555  23.5448288690476 7.19791666666667  23.0630580357143 8.01041666666667  C 22.581287202381 8.82291666666667  21.9412202380952 9.46527777777778  21.1428571428571 9.9375  L 21.1428571428571 13.3333333333333  L 25.1071428571429 13.3333333333333  C 25.4650297619048 13.3333333333333  25.7747395833333 13.4652777777778  26.0362723214286 13.7291666666667  C 26.2978050595238 13.9930555555556  26.4285714285714 14.3055555555556  26.4285714285714 14.6666666666667  L 26.4285714285714 17.3333333333333  C 26.4285714285714 17.6944444444444  26.2978050595238 18.0069444444444  26.0362723214286 18.2708333333333  C 25.7747395833333 18.5347222222222  25.4650297619048 18.6666666666667  25.1071428571429 18.6666666666667  L 21 18.6666666666667  L 21 32.1458333333333  C 23.1938244047619 31.8680555555556  25.0624069940476 31.2951388888889  26.7486049107143 30.4270833333333  C 28.434802827381 29.5590277777778  29.7390252976191 28.4930555555556  30.6612723214286 27.2291666666667  L 28.5965401785714 25.1458333333333  C 28.3900669642857 24.9236111111111  28.3418898809524 24.6805555555556  28.4520089285714 24.4166666666667  C 28.5621279761905 24.1388888888889  28.7686011904762 24  29.0714285714286 24  L 36.3392857142857 24  C 36.5319940476191 24  36.6902901785714 24.0625  36.8141741071429 24.1875  Z " fill-rule="nonzero" fill="#ffffff" stroke="none" transform="matrix(1 0 0 1 296 199 )" />
  </g>
</svg>