<?xml version="1.0" encoding="utf-8"?>
<svg version="1.1" xmlns:xlink="http://www.w3.org/1999/xlink" width="11px" height="16px" xmlns="http://www.w3.org/2000/svg">
  <g transform="matrix(1 0 0 1 -2386 -1252 )">
    <path d="M 10.7958984375 9.67045454545455  C 10.9319661458333 9.81439393939394  11 9.98484848484848  11 10.1818181818182  C 11 10.3787878787879  10.9319661458333 10.5492424242424  10.7958984375 10.6931818181818  L 5.9833984375 15.7840909090909  C 5.84733072916667 15.9280303030303  5.68619791666667 16  5.5 16  C 5.31380208333333 16  5.15266927083333 15.9280303030303  5.0166015625 15.7840909090909  L 0.2041015625 10.6931818181818  C 0.0680338541666667 10.5492424242424  0 10.3787878787879  0 10.1818181818182  C 0 9.98484848484848  0.0680338541666667 9.81439393939394  0.2041015625 9.67045454545455  C 0.340169270833333 9.52651515151515  0.501302083333333 9.45454545454545  0.6875 9.45454545454545  L 10.3125 9.45454545454545  C 10.4986979166667 9.45454545454545  10.6598307291667 9.52651515151515  10.7958984375 9.67045454545455  Z M 10.7958984375 5.30681818181818  C 10.9319661458333 5.45075757575757  11 5.62121212121212  11 5.81818181818182  C 11 6.01515151515151  10.9319661458333 6.18560606060606  10.7958984375 6.32954545454546  C 10.6598307291667 6.47348484848485  10.4986979166667 6.54545454545455  10.3125 6.54545454545455  L 0.6875 6.54545454545455  C 0.501302083333333 6.54545454545455  0.340169270833333 6.47348484848485  0.2041015625 6.32954545454546  C 0.0680338541666667 6.18560606060606  0 6.01515151515151  0 5.81818181818182  C 0 5.62121212121212  0.0680338541666667 5.45075757575757  0.2041015625 5.30681818181818  L 5.0166015625 0.215909090909092  C 5.15266927083333 0.0719696969696955  5.31380208333333 0  5.5 0  C 5.68619791666667 0  5.84733072916667 0.0719696969696955  5.9833984375 0.215909090909092  L 10.7958984375 5.30681818181818  Z " fill-rule="nonzero" fill="#aaaaaa" stroke="none" transform="matrix(1 0 0 1 2386 1252 )" />
  </g>
</svg>