<?xml version="1.0" encoding="utf-8"?>
<svg version="1.1" xmlns:xlink="http://www.w3.org/1999/xlink" width="13px" height="13px" xmlns="http://www.w3.org/2000/svg">
  <g transform="matrix(1 0 0 1 -1443 -1419 )">
    <path d="M 12.7129755434783 5.21084724005135  C 12.9043251811594 5.41944801026958  13 5.67115960633291  13 5.96598202824133  L 13 7.03401797175867  C 13 7.32884039366709  12.9043251811594 7.58055198973042  12.7129755434783 7.78915275994865  C 12.5216259057971 7.99775353016688  12.2728713768116 8.102053915276  11.9667119565217 8.102053915276  L 5.74932065217391 8.102053915276  L 8.33695652173913 10.5551989730424  C 8.5606884057971 10.7554557124519  8.67255434782609 11.0057766367137  8.67255434782609 11.306161745828  C 8.67255434782609 11.6065468549422  8.5606884057971 11.8568677792041  8.33695652173913 12.0571245186136  L 7.67459239130435 12.691270860077  C 7.4567481884058 12.8970902866923  7.19180253623188 13  6.87975543478261 13  C 6.57359601449275 13  6.30570652173913 12.8970902866923  6.07608695652174 12.691270860077  L 0.326766304347826 7.25096277278562  C 0.108922101449275 7.0451433461703  0 6.79482242190843  0 6.5  C 0 6.21074026529739  0.108922101449275 5.95763799743261  0.326766304347826 5.74069319640565  L 6.07608695652174 0.317073170731708  C 6.29981884057971 0.105691056910568  6.56770833333333 0  6.87975543478261 0  C 7.18591485507246 0  7.45086050724638 0.105691056910568  7.67459239130435 0.317073170731708  L 8.33695652173913 0.934531450577664  C 8.5606884057971 1.1459135643988  8.67255434782609 1.39901583226358  8.67255434782609 1.69383825417202  C 8.67255434782609 1.98866067608044  8.5606884057971 2.24176294394523  8.33695652173913 2.45314505776637  L 5.74932065217391 4.89794608472401  L 11.9667119565217 4.89794608472401  C 12.2728713768116 4.89794608472401  12.5216259057971 5.00224646983312  12.7129755434783 5.21084724005135  Z " fill-rule="nonzero" fill="#50cd98" stroke="none" transform="matrix(1 0 0 1 1443 1419 )" />
  </g>
</svg>