<?xml version="1.0" encoding="utf-8"?>
<svg version="1.1" xmlns:xlink="http://www.w3.org/1999/xlink" width="74px" height="32px" xmlns="http://www.w3.org/2000/svg">
  <g transform="matrix(1 0 0 1 -829 -2290 )">
    <path d="M 73.5717592592593 14.9388816644993  C 73.8572530864198 15.2162982228002  74 15.5353272648461  74 15.8959687906372  C 74 16.2843519722583  73.8572530864198 16.6172518422193  73.5717592592593 16.8946684005202  L 57.1273148148148 31.6254876462939  C 56.670524691358 32.013870827915  56.1709104938272 32.0970957954053  55.6284722222222 31.8751625487646  C 55.0860339506173 31.6254876462939  54.8148148148148 31.2232336367577  54.8148148148148 30.668400520156  L 54.8148148148148 21  L 1.37037037037037 21  C 0.970679012345679 21.3472041612484  0.642361111111111 21.222366710013  0.385416666666667 20.9726918075423  C 0.128472222222222 20.7230169050715  0 20.4039878630256  0 20.0156046814044  L 0 12.0260078023407  C 0 11.6376246207195  0.128472222222222 11.3185955786736  0.385416666666667 11.0689206762029  C 0.642361111111111 10.8192457737321  0.970679012345679 10.6944083224967  1.37037037037037 11  L 54.8148148148148 11  L 54.8148148148148 1.37321196358908  C 54.8148148148148 0.790637191157348  55.0860339506173 0.388383181621151  55.6284722222222 0.166449934980495  C 56.1709104938272 -0.0554833116601685  56.670524691358 0.0138708279150386  57.1273148148148 0.374512353706113  L 73.5717592592593 14.9388816644993  Z " fill-rule="nonzero" fill="#d7d7d7" stroke="none" transform="matrix(1 0 0 1 829 2290 )" />
  </g>
</svg>