<?xml version="1.0" encoding="utf-8"?>
<svg version="1.1" xmlns:xlink="http://www.w3.org/1999/xlink" width="74px" height="32px" xmlns="http://www.w3.org/2000/svg">
  <g transform="matrix(1 0 0 1 -829 -2322 )">
    <path d="M 73.6145833333333 11.0273081924577  C 73.8715277777778 11.2769830949285  74 11.5960121369744  74 11.9843953185956  L 74 19.9739921976593  C 74 20.3623753792804  73.8715277777778 20.6814044213264  73.6145833333333 20.9310793237971  C 73.3576388888889 21.1807542262679  73.0293209876543 21.3055916775033  72.6296296296296 21  L 19.1851851851852 21  L 19.1851851851852 30.6267880364109  C 19.1851851851852 31.2093628088427  18.9139660493827 31.6116168183788  18.3715277777778 31.8335500650195  C 17.8290895061728 32.0554833116602  17.329475308642 31.986129172085  16.8726851851852 31.6254876462939  L 0.428240740740741 17.0611183355007  C 0.142746913580247 16.7837017771998  0 16.4646727351539  0 16.1040312093628  C 0 15.7156480277417  0.142746913580247 15.3827481577807  0.428240740740741 15.1053315994798  L 16.8726851851852 0.374512353706113  C 17.329475308642 -0.0138708279150492  17.8290895061728 -0.0970957954052949  18.3715277777778 0.124837451235372  C 18.9139660493827 0.374512353706113  19.1851851851852 0.776766363242306  19.1851851851852 1.33159947984395  L 19.1851851851852 11  L 72.6296296296296 11  C 73.0293209876543 10.6527958387516  73.3576388888889 10.777633289987  73.6145833333333 11.0273081924577  Z " fill-rule="nonzero" fill="#d7d7d7" stroke="none" transform="matrix(1 0 0 1 829 2322 )" />
  </g>
</svg>