<?xml version="1.0" encoding="utf-8"?>
<svg version="1.1" xmlns:xlink="http://www.w3.org/1999/xlink" width="9px" height="9px" xmlns="http://www.w3.org/2000/svg">
  <g transform="matrix(1 0 0 1 -1186 -1550 )">
    <path d="M 1190.5 1551  C 1192.46 1551  1194 1552.54  1194 1554.5  C 1194 1556.46  1192.46 1558  1190.5 1558  C 1188.54 1558  1187 1556.46  1187 1554.5  C 1187 1552.54  1188.54 1551  1190.5 1551  Z " fill-rule="nonzero" fill="#49a9ee" stroke="none" fill-opacity="0" />
    <path d="M 1190.5 1551  C 1192.46 1551  1194 1552.54  1194 1554.5  C 1194 1556.46  1192.46 1558  1190.5 1558  C 1188.54 1558  1187 1556.46  1187 1554.5  C 1187 1552.54  1188.54 1551  1190.5 1551  Z " stroke-width="2" stroke="#28a6dc" fill="none" />
  </g>
</svg>