<?xml version="1.0" encoding="utf-8"?>
<svg version="1.1" xmlns:xlink="http://www.w3.org/1999/xlink" width="51px" height="51px" xmlns="http://www.w3.org/2000/svg">
  <g transform="matrix(1 0 0 1 -1208 -441 )">
    <path d="M 14.14453125 0.113839285714288  C 14.27734375 0.0379464285714313  14.4196428571429 0  14.5714285714286 0  C 14.8180803571429 0  15.0315290178571 0.090122767857145  15.2117745535714 0.270368303571429  C 15.3920200892857 0.450613839285714  15.4821428571429 0.664062499999996  16 0.910714285714288  L 16 42.8035714285714  C 15.4821428571429 43.1830357142857  15.3208705357143 43.4486607142857  14.9983258928571 43.6004464285714  L 1.33761160714286 50.8861607142857  C 1.20479910714286 50.9620535714286  1.0625 51  0.910714285714286 51  C 0.6640625 51  0.450613839285714 50.9098772321429  0.270368303571429 50.7296316964286  C 0.0901227678571429 50.5493861607143  0 50.3359375  0 50.0892857142857  L 0 8.19642857142857  C 0 7.81696428571428  0.161272321428571 7.55133928571428  0.483816964285714 7.39955357142857  L 14.14453125 0.113839285714288  Z M 49.6623883928571 0.113839285714288  C 49.7952008928572 0.0379464285714313  49.9375 0  50.0892857142857 0  C 50.3359375 0  50.5493861607143 0.090122767857145  50.7296316964286 0.270368303571429  C 50.9098772321429 0.450613839285714  51 0.664062499999996  51 0.910714285714288  L 51 42.8035714285714  C 51 43.1830357142857  50.8387276785714 43.4486607142857  50.5161830357143 43.6004464285714  L 36.85546875 50.8861607142857  C 36.72265625 50.9620535714286  36.5803571428571 51  36.4285714285714 51  C 36.1819196428571 51  35.9684709821429 50.9098772321429  35.7882254464286 50.7296316964286  C 35.6079799107143 50.5493861607143  35.5178571428571 50.3359375  35 50.0892857142857  L 35 8.19642857142857  C 35.5178571428571 7.81696428571428  35.6791294642857 7.55133928571428  36.0016741071429 7.39955357142857  L 49.6623883928571 0.113839285714288  Z M 17.5739397321429 0.270368303571429  C 17.7541852678571 0.090122767857145  17.9676339285714 0  18.2142857142857 0  C 18.3660714285714 0  18.4988839285714 0.0284598214285706  18.6127232142857 0.0853794642857119  L 33.1841517857143 7.37109375  C 33.5256696428571 7.56082589285714  33.6964285714286 7.8359375  33 8.19642857142857  L 33 50.0892857142857  C 33.6964285714286 50.3359375  33.6063058035714 50.5493861607143  33.4260602678571 50.7296316964286  C 33.2458147321429 50.9098772321429  33.0323660714286 51  32.7857142857143 51  C 32.6339285714286 51  32.5011160714286 50.9715401785714  32.3872767857143 50.9146205357143  L 17.8158482142857 43.62890625  C 17.4743303571429 43.4391741071429  17.3035714285714 43.1640625  18 42.8035714285714  L 18 0.910714285714288  C 17.3035714285714 0.664062499999996  17.3936941964286 0.450613839285714  17.5739397321429 0.270368303571429  Z " fill-rule="nonzero" fill="#49a9ee" stroke="none" transform="matrix(1 0 0 1 1208 441 )" />
  </g>
</svg>