<?xml version="1.0" encoding="utf-8"?>
<svg version="1.1" xmlns:xlink="http://www.w3.org/1999/xlink" width="40px" height="61px" xmlns="http://www.w3.org/2000/svg">
  <g transform="matrix(1 0 0 1 -1211 -640 )">
    <path d="M 27.0703125 27.521484375  C 29.0234375 25.5358072916667  30 23.1397569444444  30 20.3333333333333  C 30 17.5269097222222  29.0234375 15.130859375  27.0703125 13.1451822916667  C 25.1171875 11.1595052083333  22.7604166666667 10.1666666666667  20 10.1666666666667  C 17.2395833333333 10.1666666666667  14.8828125 11.1595052083333  12.9296875 13.1451822916667  C 10.9765625 15.130859375  10 17.5269097222222  10 20.3333333333333  C 10 23.1397569444444  10.9765625 25.5358072916667  12.9296875 27.521484375  C 14.8828125 29.5071614583333  17.2395833333333 30.5  20 30.5  C 22.7604166666667 30.5  25.1171875 29.5071614583333  27.0703125 27.521484375  Z M 34.140625 5.95703125  C 38.046875 9.92838541666666  40 14.7204861111111  40 20.3333333333333  C 40 23.2191840277778  39.5703125 25.5887586805556  38.7109375 27.4420572916667  L 24.4921875 58.1803385416667  C 24.0755208333333 59.0540364583333  23.45703125 59.7424045138889  22.63671875 60.2454427083333  C 21.81640625 60.7484809027778  20.9375 61  20 61  C 19.0625 61  18.18359375 60.7484809027778  17.36328125 60.2454427083333  C 16.54296875 59.7424045138889  15.9375 59.0540364583333  15.546875 58.1803385416667  L 1.2890625 27.4420572916667  C 0.4296875 25.5887586805556  0 23.2191840277778  0 20.3333333333333  C 0 14.7204861111111  1.953125 9.92838541666666  5.859375 5.95703125  C 9.765625 1.98567708333334  14.4791666666667 0  20 0  C 25.5208333333333 0  30.234375 1.98567708333334  34.140625 5.95703125  Z " fill-rule="nonzero" fill="#49a9ee" stroke="none" transform="matrix(1 0 0 1 1211 640 )" />
  </g>
</svg>