<?xml version="1.0" encoding="utf-8"?>
<svg version="1.1" xmlns:xlink="http://www.w3.org/1999/xlink" width="27px" height="28px" xmlns="http://www.w3.org/2000/svg">
  <g transform="matrix(1 0 0 1 -281 -598 )">
    <path d="M 26.9328835227273 21.3919270833333  C 26.9776278409091 22.0056423611111  27 22.6345486111111  27 23.2786458333333  C 27 24.7369791666667  26.5333806818182 25.8884548611111  25.6001420454545 26.7330729166667  C 24.6669034090909 27.5776909722222  23.4268465909091 28  21.8799715909091 28  L 5.12002840909091 28  C 3.57315340909091 28  2.33309659090909 27.5776909722222  1.39985795454545 26.7330729166667  C 0.466619318181818 25.8884548611111  0 24.7369791666667  0 23.2786458333333  C 0 22.6345486111111  0.0223721590909091 22.0056423611111  0.0671164772727273 21.3919270833333  C 0.111860795454545 20.7782118055556  0.201349431818182 20.1158854166667  0.335582386363636 19.4049479166667  C 0.469815340909091 18.6940104166667  0.639204545454546 18.0347222222222  0.84375 17.4270833333333  C 1.04829545454545 16.8194444444444  1.32315340909091 16.2269965277778  1.66832386363636 15.6497395833333  C 2.01349431818182 15.0724826388889  2.40980113636364 14.5802951388889  2.85724431818182 14.1731770833333  C 3.3046875 13.7660590277778  3.85120738636364 13.4409722222222  4.49680397727273 13.1979166666667  C 5.14240056818182 12.9548611111111  5.85511363636364 12.8333333333333  6.63494318181818 12.8333333333333  C 6.75 12.8333333333333  7.01846590909091 12.9639756944444  7.44034090909091 13.2252604166667  C 7.86221590909091 13.4865451388889  8.33842329545455 13.7782118055556  8.86896306818182 14.1002604166667  C 9.39950284090909 14.4223090277778  10.08984375 14.7139756944444  10.9399857954545 14.9752604166667  C 11.7901278409091 15.2365451388889  12.6434659090909 15.3671875  13.5 15.3671875  C 14.3565340909091 15.3671875  15.2098721590909 15.2365451388889  16.0600142045455 14.9752604166667  C 16.91015625 14.7139756944444  17.6004971590909 14.4223090277778  18.1310369318182 14.1002604166667  C 18.6615767045455 13.7782118055556  19.1377840909091 13.4865451388889  19.5596590909091 13.2252604166667  C 19.9815340909091 12.9639756944444  20.25 12.8333333333333  20.3650568181818 12.8333333333333  C 21.1448863636364 12.8333333333333  21.8575994318182 12.9548611111111  22.5031960227273 13.1979166666667  C 23.1487926136364 13.4409722222222  23.6953125 13.7660590277778  24.1427556818182 14.1731770833333  C 24.5901988636364 14.5802951388889  24.9865056818182 15.0724826388889  25.3316761363636 15.6497395833333  C 25.6768465909091 16.2269965277778  25.9517045454546 16.8194444444444  26.15625 17.4270833333333  C 26.3607954545455 18.0347222222222  26.5301846590909 18.6940104166667  26.6644176136364 19.4049479166667  C 26.7986505681818 20.1158854166667  26.8881392045455 20.7782118055556  26.9328835227273 21.3919270833333  Z M 18.7063210227273 2.05078125  C 20.14453125 3.41796875  20.8636363636364 5.06770833333333  20.8636363636364 7  C 20.8636363636364 8.93229166666667  20.14453125 10.58203125  18.7063210227273 11.94921875  C 17.2681107954545 13.31640625  15.5326704545455 14  13.5 14  C 11.4673295454545 14  9.73188920454545 13.31640625  8.29367897727273 11.94921875  C 6.85546875 10.58203125  6.13636363636364 8.93229166666667  6.13636363636364 7  C 6.13636363636364 5.06770833333333  6.85546875 3.41796875  8.29367897727273 2.05078125  C 9.73188920454545 0.68359375  11.4673295454545 0  13.5 0  C 15.5326704545455 0  17.2681107954545 0.68359375  18.7063210227273 2.05078125  Z " fill-rule="nonzero" fill="#ffffff" stroke="none" transform="matrix(1 0 0 1 281 598 )" />
  </g>
</svg>