<?xml version="1.0" encoding="utf-8"?>
<svg version="1.1" xmlns:xlink="http://www.w3.org/1999/xlink" width="19px" height="19px" xmlns="http://www.w3.org/2000/svg">
  <g transform="matrix(1 0 0 1 -1433 -316 )">
    <path d="M 3.21056105610561 17.3947194719472  L 4.55247524752475 17.3947194719472  L 5.69372937293729 16.2534653465347  L 2.74653465346535 13.3062706270627  L 1.60528052805281 14.4475247524752  L 1.60528052805281 15.7894389438944  L 3.21056105610561 15.7894389438944  L 3.21056105610561 17.3947194719472  Z M 11.0237623762376 5.96963696369637  C 11.0822882288229 5.91111111111111  11.1115511551155 5.84004400440044  11.1115511551155 5.75643564356436  C 11.1115511551155 5.57249724972497  11.0195819581958 5.48052805280528  10.8356435643564 5.48052805280528  C 10.7520352035204 5.48052805280528  10.6809680968097 5.50979097909791  10.6224422442244 5.56831683168317  L 3.82508250825083 12.3656765676568  C 3.76655665566557 12.424202420242  3.73729372937294 12.4952695269527  3.73729372937294 12.5788778877888  C 3.73729372937294 12.7628162816282  3.82926292629263 12.8547854785479  4.01320132013201 12.8547854785479  C 4.0968096809681 12.8547854785479  4.16787678767877 12.8255225522552  4.22640264026403 12.76699669967  L 11.0237623762376 5.96963696369637  Z M 0 13.7828382838284  L 10.4343234323432 3.34851485148515  L 15.6514851485149 8.56567656765677  L 5.21716171617162 19  L 0 19  L 0 13.7828382838284  Z M 18.5359735973597 3.41122112211221  C 18.8453245324532 3.73729372937294  19 4.11771177117712  19 4.55247524752475  C 19 4.995599559956  18.8453245324532 5.37183718371837  18.5359735973597 5.68118811881188  L 16.4541254125413 7.76303630363036  L 11.2369636963696 2.54587458745875  L 13.3188118811881 0.476567656765676  C 13.619801980198 0.158855885588557  13.9960396039604 0  14.4475247524752 0  C 14.8906490649065 0  15.2710671067107 0.158855885588557  15.5887788778878 0.476567656765676  L 18.5359735973597 3.41122112211221  Z " fill-rule="nonzero" fill="#46b7ad" stroke="none" transform="matrix(1 0 0 1 1433 316 )" />
  </g>
</svg>